<svg width="28" height="28" viewBox="0 0 28 28" fill="none" xmlns="http://www.w3.org/2000/svg">
<rect x="1.08125" y="1.00786" width="25.6169" height="25.6169" rx="12.8085" stroke="#7A7A7A" stroke-width="1.24961"/>
<path d="M13.0844 18.5942V10.4149H15.3528V18.5942H13.0844ZM14.2239 9.36059C13.8867 9.36059 13.5973 9.24876 13.3559 9.02511C13.1181 8.79791 12.9992 8.52633 12.9992 8.21038C12.9992 7.89798 13.1181 7.62995 13.3559 7.4063C13.5973 7.1791 13.8867 7.0655 14.2239 7.0655C14.5612 7.0655 14.8487 7.1791 15.0866 7.4063C15.328 7.62995 15.4487 7.89798 15.4487 8.21038C15.4487 8.52633 15.328 8.79791 15.0866 9.02511C14.8487 9.24876 14.5612 9.36059 14.2239 9.36059Z" fill="#9F9F9F"/>
</svg>
